<svg width="706" height="183" viewBox="0 0 706 183" fill="none" xmlns="http://www.w3.org/2000/svg">
<path d="M0 45.4033C0.08 45.4233 0.160005 45.4332 0.240005 45.4532C0.780006 46.0632 0.620003 46.8132 0.620003 47.5132C0.630003 55.9032 0.630005 64.2933 0.630005 72.6833C0.630005 93.3833 0.630003 114.083 0.620003 134.773C0.620003 135.553 0.820005 136.383 0.240005 137.073C0.160005 137.073 0.08 137.073 0 137.073C0 106.523 0 75.9633 0 45.4033Z" fill="#F4893A"/>
<path d="M0.240234 137.083C0.240234 106.543 0.240234 75.9932 0.240234 45.4532C6.62023 41.8932 13.0002 38.3232 19.3902 34.7732C40.0702 23.2932 60.7502 11.8132 81.4302 0.323236C82.1102 -0.0567643 82.6302 -0.136752 83.3702 0.273248C110.08 15.1332 136.81 29.9632 163.55 44.7632C164.56 45.3232 164.9 45.9133 164.9 47.0633C164.86 76.6233 164.87 106.183 164.89 135.733C164.89 136.693 164.61 137.193 163.75 137.673C137.15 152.403 110.57 167.163 84.0002 181.953C82.8602 182.583 82.0302 182.603 80.8702 181.963C54.3402 167.193 27.7902 152.463 1.24023 137.723C0.900234 137.523 0.570234 137.293 0.240234 137.083Z" fill="#F48534"/>
<path d="M629.77 87.4832C629.77 71.6032 629.78 55.7332 629.74 39.8532C629.74 38.7132 630.09 38.4933 631.14 38.4933C654.94 38.5233 678.73 38.5232 702.53 38.4832C703.71 38.4832 703.97 38.8033 703.96 39.9433C703.9 45.1433 703.9 50.3432 703.96 55.5432C703.97 56.5732 703.65 56.7833 702.68 56.7733C686.36 56.7433 670.05 56.7633 653.73 56.7233C652.54 56.7233 652.29 57.0533 652.31 58.1833C652.37 64.3033 652.37 70.4232 652.31 76.5432C652.3 77.6932 652.67 77.8932 653.72 77.8932C668 77.8632 682.27 77.8933 696.55 77.8433C697.75 77.8433 697.98 78.1833 697.97 79.3133C697.91 84.2733 697.89 89.2333 697.98 94.1933C698 95.4733 697.59 95.6633 696.44 95.6633C682.24 95.6233 668.05 95.6332 653.85 95.6432C652.11 95.6432 652.35 95.4732 652.34 97.2032C652.33 103.683 652.33 110.163 652.34 116.643C652.34 118.413 652.09 118.203 653.96 118.203C670.68 118.213 687.39 118.213 704.11 118.183C705.26 118.183 705.67 118.373 705.65 119.653C705.56 124.893 705.6 130.133 705.63 135.373C705.64 136.183 705.46 136.473 704.59 136.473C679.99 136.453 655.4 136.443 630.8 136.483C629.76 136.483 629.76 136.013 629.76 135.253C629.77 119.313 629.77 103.393 629.77 87.4832Z" fill="#F48534"/>
<path d="M574.49 36.8632C585.66 36.7632 595.99 39.5632 605.36 45.7132C608.62 47.8532 611.46 50.4933 614.04 53.4133C614.55 53.9833 614.52 54.3032 613.95 54.8332C609.65 58.7832 605.37 62.7633 601.14 66.7833C600.41 67.4733 600.07 67.4632 599.4 66.7132C594.84 61.7032 589.36 58.1333 582.65 56.8433C572.03 54.7933 562.26 56.7332 553.93 63.9232C548.7 68.4332 545.87 74.4032 544.67 81.1132C543.17 89.5132 544.3 97.5533 548.82 104.883C553.85 113.053 561.43 117.383 570.81 118.623C582.2 120.133 591.75 116.483 599.47 108.013C600.06 107.373 600.37 107.283 601.05 107.933C605.23 111.893 609.43 115.833 613.7 119.703C614.58 120.503 614.47 120.943 613.77 121.753C608.75 127.653 602.48 131.693 595.3 134.463C586.54 137.853 577.47 138.653 568.19 137.843C558.64 137.013 549.81 134.023 541.99 128.463C530.35 120.173 523.5 108.883 521.74 94.6532C520.49 84.5832 521.48 74.7533 525.98 65.5333C533.23 50.6433 545.32 41.8933 561.28 38.2233C565.63 37.2133 570.05 36.9132 574.49 36.8632Z" fill="#F48534"/>
<path d="M302.7 87.4532C302.7 71.6132 302.71 55.7833 302.67 39.9433C302.67 38.7833 302.98 38.4833 304.13 38.4933C327.93 38.5233 351.72 38.5233 375.52 38.4933C376.67 38.4933 376.89 38.8533 376.88 39.9133C376.83 45.0733 376.83 50.2332 376.88 55.3932C376.89 56.4732 376.63 56.7932 375.51 56.7932C359.35 56.7532 343.2 56.7632 327.04 56.7632C325.5 56.7632 325.5 56.7632 325.5 58.3232C325.5 65.9632 325.52 73.6033 325.47 81.2433C325.46 82.3833 325.74 82.7133 326.91 82.7133C341.07 82.6733 355.22 82.7033 369.38 82.6533C370.61 82.6533 370.9 82.9732 370.89 84.1732C370.82 89.1732 370.86 94.1732 370.86 99.1732C370.86 100.683 370.86 100.683 369.29 100.683C355.17 100.683 341.06 100.693 326.94 100.653C325.79 100.653 325.47 100.943 325.48 102.103C325.52 113.063 325.48 124.023 325.54 134.973C325.55 136.233 325.17 136.473 324 136.463C317.36 136.403 310.72 136.413 304.08 136.463C303.01 136.473 302.67 136.223 302.67 135.093C302.71 119.213 302.7 103.333 302.7 87.4532Z" fill="#F48534"/>
<path d="M392.1 87.4033C392.1 71.5633 392.11 55.7232 392.08 39.8932C392.08 38.8232 392.32 38.4833 393.45 38.4933C417.25 38.5333 441.04 38.5333 464.84 38.4933C466.01 38.4933 466.3 38.8233 466.29 39.9633C466.23 45.0833 466.23 50.2032 466.29 55.3232C466.3 56.4632 466.02 56.7932 464.85 56.7932C448.69 56.7532 432.53 56.7832 416.38 56.7332C415.15 56.7332 414.87 57.0533 414.87 58.2533C414.93 65.8933 414.9 73.5332 414.9 81.1732C414.9 82.6832 414.9 82.6833 416.47 82.6833C430.59 82.6833 444.71 82.6933 458.82 82.6533C459.97 82.6533 460.3 82.9432 460.29 84.1032C460.23 89.1432 460.21 94.1833 460.3 99.2233C460.32 100.503 459.91 100.713 458.75 100.703C444.63 100.663 430.51 100.693 416.4 100.653C415.2 100.653 414.87 100.923 414.88 102.153C414.93 113.153 414.89 124.153 414.94 135.143C414.94 136.223 414.63 136.463 413.59 136.453C406.95 136.403 400.31 136.433 393.67 136.433C392.11 136.433 392.11 136.433 392.11 134.913C392.1 119.083 392.1 103.243 392.1 87.4033Z" fill="#F48534"/>
<path d="M481.43 87.4232C481.43 71.5832 481.44 55.7433 481.4 39.9133C481.4 38.7333 481.72 38.4732 482.86 38.4832C489.54 38.5432 496.22 38.5333 502.9 38.4933C503.88 38.4833 504.26 38.6333 504.26 39.7733C504.22 71.5733 504.22 103.363 504.26 135.163C504.26 136.253 503.94 136.473 502.92 136.463C496.2 136.413 489.48 136.413 482.76 136.473C481.62 136.483 481.41 136.123 481.41 135.073C481.44 119.183 481.43 103.303 481.43 87.4232Z" fill="#F48534"/>
<path d="M128.23 105.933C128.23 112.253 128.18 118.573 128.26 124.893C128.29 126.953 127.5 128.343 125.86 129.523C117.66 135.413 108.49 138.953 98.6399 140.823C87.6399 142.903 76.6599 142.843 65.9099 139.473C47.9799 133.843 35.2499 122.433 29.8099 104.253C24.4199 86.2133 26.8999 69.0732 38.6399 53.8932C46.2199 44.0832 56.3799 37.9632 68.3399 35.0232C83.4199 31.3132 98.2299 32.1932 112.5 38.7032C118.84 41.5932 124.3 45.7132 128.87 50.9932C130.63 53.0232 130.51 55.1732 128.52 57.0132C123.83 61.3732 119.13 65.7132 114.42 70.0432C112.49 71.8132 110.3 71.7133 108.38 69.7533C103.73 64.9833 98.2499 61.6633 91.5999 60.6933C82.6199 59.3833 74.1999 60.7132 67.0199 66.7432C62.3299 70.6832 59.6599 75.8532 58.6999 81.8532C57.5899 88.7732 58.1599 95.5033 61.7199 101.723C66.0099 109.223 72.6499 113.323 81.0899 114.523C86.9899 115.363 92.7999 114.803 98.4299 112.673C99.3299 112.333 99.6099 111.893 99.6099 110.943C99.5699 102.823 99.5799 94.7032 99.5899 86.5832C99.5899 83.5632 101.14 81.9932 104.17 81.9932C110.65 81.9832 117.13 81.9832 123.61 81.9932C126.73 82.0032 128.23 83.5132 128.24 86.6432C128.24 93.0532 128.23 99.4933 128.23 105.933Z" fill="#FDFDFD"/>
<path fill-rule="evenodd" clip-rule="evenodd" d="M267.15 48.4033C256.97 40.2033 245.12 36.9432 231.94 36.8532C228.19 36.9232 224.17 37.2033 220.19 37.9633C210.55 39.7933 201.92 43.7333 194.72 50.4733C181.4 62.9533 176.56 78.5033 179.44 96.2233C182.35 114.113 192.74 126.653 209.33 133.793C220.47 138.583 232.21 139.283 244.04 137.033C260.36 133.923 272.71 125.103 280.53 110.333C285.36 101.213 286.47 91.3733 285.39 81.2233C283.95 67.7133 277.65 56.8633 267.15 48.4033ZM201.92 92.7932C204.17 108.403 216.56 118.943 232.49 118.913C232.661 118.908 232.836 118.903 233.014 118.898C234.159 118.866 235.439 118.831 236.72 118.623C247.13 116.973 254.99 111.703 259.7 102.163C262.89 95.6933 263.65 88.7933 262.49 81.7133C261.38 74.9533 258.63 68.9133 253.49 64.2533C246.19 57.6333 237.52 55.1033 227.78 56.4033C220.16 57.4233 213.63 60.7132 208.71 66.6732C202.43 74.2832 200.54 83.2132 201.92 92.7932Z" fill="#F48534"/>
<path d="M124.25 106.003C124.25 112.123 124.23 118.243 124.27 124.363C124.28 125.313 123.98 125.893 123.23 126.443C115.63 132.013 107.07 135.273 97.8898 136.943C87.5298 138.823 77.1698 138.783 67.0398 135.633C49.6098 130.203 37.8298 118.873 33.0898 101.133C29.6898 88.3933 30.6298 75.7033 36.9098 63.8433C44.3498 49.7933 56.3198 41.5733 71.6398 38.2833C84.4798 35.5233 97.1598 36.4433 109.39 41.5333C115.57 44.1033 120.81 48.0532 125.44 52.8532C126.1 53.5432 125.96 53.8532 125.34 54.4232C120.96 58.4032 116.6 62.4033 112.27 66.4433C111.62 67.0533 111.32 66.9132 110.76 66.3632C105.91 61.5632 100.27 58.0332 93.4998 56.8332C81.4898 54.6932 70.5998 56.9533 61.9698 66.1533C55.5898 72.9633 53.5798 81.3732 54.2898 90.4532C55.1098 100.903 59.9198 109.083 68.9798 114.513C75.5298 118.443 82.7498 119.423 90.2498 118.713C94.5498 118.313 98.6198 117.093 102.5 115.203C103.31 114.803 103.65 114.353 103.64 113.393C103.59 104.713 103.63 96.0332 103.59 87.3532C103.59 86.3332 103.78 85.9933 104.89 86.0033C110.93 86.0633 116.97 86.0532 123.01 86.0132C124.01 86.0032 124.29 86.2733 124.28 87.2733C124.23 93.5233 124.25 99.7633 124.25 106.003Z" fill="#006FBC"/>
</svg>
